<svg width="294" height="168" viewBox="0 0 294 168" fill="none" xmlns="http://www.w3.org/2000/svg">
<g filter="url(#filter0_d_4_179)">
<g clip-path="url(#clip0_4_179)">
<mask id="mask0_4_179" style="mask-type:alpha" maskUnits="userSpaceOnUse" x="4" y="17" width="285" height="125">
<rect x="4" y="17.0518" width="284.938" height="124.058" fill="url(#paint0_linear_4_179)"/>
</mask>
<g mask="url(#mask0_4_179)">
<path d="M253.225 33.345L237.12 27.9651L170.793 28.1726L159.312 24.0481L149.597 28.0837L108.085 27.97L91.6362 20.4277H67.7192L64.0198 27.9675H43.1746L4 90.3523L47.6081 139.575H245.423L289.031 90.3523L253.223 33.3425L253.225 33.345ZM244.418 137.344H48.6139L6.78265 90.1249L44.4127 30.1991H65.416L69.1131 22.6592H91.1494L107.593 30.1991L150.04 30.3152L159.369 26.4378L170.406 30.4042L236.759 30.1966L251.757 35.2059L286.249 90.12L244.418 137.339V137.344Z" fill="url(#paint1_linear_4_179)"/>
</g>
<path d="M286.251 90.1247L244.418 137.341H48.6138L6.78259 90.1247L44.4126 30.1989H65.416L69.113 22.659H91.1493L107.596 30.1989L150.04 30.3175L159.369 26.4401L170.405 30.4065L236.759 30.1989L251.757 35.2106L286.251 90.1247Z" fill="url(#paint2_linear_4_179)"/>
<path d="M286.246 90.1247L251.759 35.2106L236.756 30.2013L170.407 30.4039L159.371 26.4375L150.037 30.315L107.593 30.2013L91.1488 22.6614H69.1149L65.4179 30.2013H44.4171L6.78455 90.1247H31.9495L50.9165 104.223H81.6344L86.2334 90.1247H106.159L110.739 70.1766H115.283L121.422 67.5027L120.134 81.0403L137.107 90.1247H286.246Z" fill="#4A357D"/>
<path d="M20.1102 82.7579H41.5485L45.2332 75.6901H35.7262L42.453 63.8972L53.4749 59.8838L56.9569 53.2114L46.4663 56.8615L52.0489 47.0728L48.7597 42.103H54.886H62.7495L65.1146 37.5683H48.4903L20.1102 82.7579Z" fill="white"/>
<path d="M73.7097 30.0257L61.2644 55.4205L76.354 64.3764L82.2751 67.4358L73.3143 72.3017L66.9903 88.7826H56.8408L67.6946 63.6918L59.5864 58.8432L44.2571 90.1171L53.3489 96.8563H76.2897L87.6551 62.0015L72.1231 53.4533L80.4834 34.128H87.9566L93.0424 36.2657L85.8486 39.6241L80.9382 52.4278L89.3084 56.9255L96.9594 33.4608L89.5308 30.0257H73.7097Z" fill="white"/>
<path d="M101.687 37.5678L88.7078 82.7574H100.291L104.872 62.8093H113.749L124.776 58.0077L126.82 41.4155L118.309 37.5678H101.684H101.687ZM116.571 47.2033L114.792 57.0513H106.197L109.63 42.1001H117.493L123.296 44.4602L116.571 47.2008V47.2033Z" fill="white"/>
<path d="M131.668 37.5678L127.932 76.8585L138.954 82.7574H160.392L157.543 41.4155L148.295 37.5678H131.671H131.668ZM148.451 51.4711L148.728 75.6871H139.221L140.483 42.1001H148.347L154.389 44.4602L148.453 51.4711H148.451Z" fill="white"/>
<path d="M163.881 41.4328L168.367 82.7574H179.95L176.636 62.8093H185.513L189.803 82.7574H201.388L196.191 63.6916L189.373 60.8051L194.641 58.0077L189.069 37.5678H172.444L163.881 41.4328ZM184.277 57.0513H175.682L174.056 47.2552L167.349 44.4626L173.198 42.1026H181.062L184.277 57.0537V57.0513Z" fill="white"/>
<path d="M193.366 42.1026H201.109L214.925 82.7574H226.511L212.306 47.013L204.193 42.0482H217.953L215.961 37.5678H192.044L193.366 42.1026Z" fill="white"/>
<path d="M256.7 56.9252L246.926 41.3637L235.558 37.5678H218.934L227.217 55.4202L250.85 64.3761L257.305 75.6896H247.796L241.541 63.6916L228.804 58.8429L237.162 76.8585L251.483 82.7574H272.921L259.885 62.0012L236.2 53.4531L232.882 47.0871L224.16 42.1026H238.145L244.034 52.4275L256.7 56.9252Z" fill="white"/>
<path d="M159.759 32.1531C158.545 33.3369 157.171 34.4341 155.661 35.43C157.312 36.4358 158.881 37.5825 160.347 38.8503C161.59 37.5825 162.959 36.4358 164.432 35.43C162.746 34.4341 161.179 33.3369 159.759 32.1531Z" fill="#E2D45C"/>
<path d="M33.1737 77.1725L40.1303 64.9743C37.5503 65.2684 34.9925 65.5699 32.457 65.8838L22.7919 81.2748H40.6493L42.7869 77.1725H33.1737Z" fill="url(#paint3_linear_4_179)"/>
<path d="M83.0514 61.1609C80.2885 61.3413 77.5429 61.534 74.8146 61.7391L77.0734 63.0786L84.4946 66.9115L85.8637 62.7079L83.0514 61.1609ZM74.5008 73.3418L68.0112 90.265H54.5848L65.8192 64.2969L63.1156 62.6807C61.8009 62.7944 60.4887 62.9105 59.1838 63.0316L46.1331 89.6596L53.8385 95.3731H75.2125L84.0943 68.1348L74.5008 73.3418Z" fill="url(#paint4_linear_4_179)"/>
<path d="M117.711 59.468L113.444 61.3264H103.694L99.1127 81.2745H90.6782L96.6859 60.3552C103.6 59.992 110.611 59.6954 117.711 59.468Z" fill="url(#paint5_linear_4_179)"/>
<path d="M158.803 81.2748H139.327L129.501 76.0184L131.11 59.1174C133.519 59.0679 135.936 59.0284 138.363 58.9963L137.681 77.1725H150.228L150.02 58.8999C151.13 58.8974 152.242 58.895 153.356 58.895C154.661 58.895 155.963 58.8974 157.261 58.9024L158.803 81.2748Z" fill="url(#paint6_linear_4_179)"/>
<path d="M199.448 81.2746H191.001L186.711 61.3265H174.886L178.2 81.2746H169.696L167.277 58.9813C174.513 59.0703 181.672 59.2309 188.745 59.4583L185.925 60.9558L194.95 64.7764L199.448 81.2746Z" fill="url(#paint7_linear_4_179)"/>
<path d="M216.147 60.6938C213.73 60.5529 211.301 60.4195 208.859 60.2959L215.989 81.2745H224.327L216.147 60.6938Z" fill="url(#paint8_linear_4_179)"/>
<path d="M259.52 64.2058C257.042 63.9463 254.546 63.6943 252.03 63.4521L259.859 77.1726H246.897L240.487 64.878L232.324 61.7692C232.141 61.7543 231.961 61.742 231.778 61.7296L238.265 75.7096L251.775 81.2749H270.241L259.52 64.2058Z" fill="url(#paint9_linear_4_179)"/>
<path fill-rule="evenodd" clip-rule="evenodd" d="M122.122 116.011V112.962L113.698 116.095H113.68V119.224H113.698L122.122 122.358V119.303L117.805 117.652L122.122 116.011Z" fill="#996DFF"/>
<path fill-rule="evenodd" clip-rule="evenodd" d="M170.92 122.2V119.15L175.235 117.509L170.92 115.868V112.819L179.333 115.95H179.352V119.081H179.333L170.92 122.197V122.2ZM167.307 108.511L162.36 124.392H165.298L170.246 108.511H167.307Z" fill="#996DFF"/>
<path fill-rule="evenodd" clip-rule="evenodd" d="M134.501 112.386C135.337 113.305 135.776 114.516 135.725 115.757V122.521H132.786V116.377C132.821 115.693 132.601 115.02 132.173 114.487C131.766 114.012 131.163 113.75 130.537 113.777C128.699 113.777 127.777 115.053 127.777 117.605V122.523H124.839V111.417H127.777V112.421C128.709 111.514 129.974 111.032 131.274 111.086C132.485 111.034 133.661 111.509 134.499 112.386H134.501Z" fill="white"/>
<path fill-rule="evenodd" clip-rule="evenodd" d="M139.464 106.799V122.679H142.402V106.799H139.464Z" fill="white"/>
<path fill-rule="evenodd" clip-rule="evenodd" d="M159.003 122.098H156.552L154.15 115.557L151.726 122.098H149.279L145.162 110.972H148.3L150.613 117.625L152.998 110.972H155.289L157.674 117.647L159.987 110.972H163.126L159.003 122.098Z" fill="white"/>
<path d="M15.9786 25.9287C19.305 17.8946 26.0219 11.5632 35.9366 7.11248C45.4362 2.84707 57.4738 0.474649 71.7108 0.0644182C100.896 -0.778285 136.129 6.6899 170.913 21.0999C173.413 22.1353 175.892 23.198 178.344 24.2878L174.876 24.2977C173.389 23.6527 171.889 23.0176 170.376 22.3924C99.1122 -7.12451 30.4282 -5.29824 17.2711 26.465C13.4604 35.6631 14.7183 46.376 20.16 57.6747C33.5024 85.3974 72.0221 116.637 122.654 137.608C127.552 139.637 132.455 141.525 137.35 143.272C167.052 153.879 196.389 159.254 221.279 158.535C235.334 158.129 247.188 155.799 256.52 151.61C266.101 147.31 272.573 141.228 275.759 133.535C278.633 126.593 278.623 118.789 276.105 110.52L277.18 109.307C280.13 118.421 280.091 126.742 277.054 134.072C273.725 142.106 267.01 148.437 257.093 152.888C247.594 157.153 235.559 159.526 221.322 159.936C219.834 159.978 218.331 160 216.814 160C191.723 160 162.579 154.151 133.258 143.272C129.543 141.896 125.829 140.438 122.117 138.9C87.3341 124.493 57.1401 104.864 37.0981 83.628C29.2172 75.2776 23.2467 67.0383 19.2902 59.0586C18.3362 57.1384 17.501 55.2355 16.7843 53.35C12.9217 43.1906 12.6498 33.9653 15.9786 25.9287Z" fill="url(#paint10_linear_4_179)"/>
<path d="M15.9786 25.9287C19.305 17.8946 26.0219 11.5632 35.9366 7.11248C45.4362 2.84707 57.4738 0.474649 71.7108 0.0644182C100.896 -0.778285 136.129 6.6899 170.913 21.0999C173.413 22.1353 175.892 23.198 178.344 24.2878L174.876 24.2977C173.389 23.6527 171.889 23.0176 170.376 22.3924C99.1122 -7.12451 30.4282 -5.29824 17.2711 26.465C13.4604 35.6631 14.7183 46.376 20.16 57.6747C33.5024 85.3974 72.0221 116.637 122.654 137.608C127.552 139.637 132.455 141.525 137.35 143.272C167.052 153.879 196.389 159.254 221.279 158.535C235.334 158.129 247.188 155.799 256.52 151.61C266.101 147.31 272.573 141.228 275.759 133.535C278.633 126.593 278.623 118.789 276.105 110.52L277.18 109.307C280.13 118.421 280.091 126.742 277.054 134.072C273.725 142.106 267.01 148.437 257.093 152.888C247.594 157.153 235.559 159.526 221.322 159.936C219.834 159.978 218.331 160 216.814 160C191.723 160 162.579 154.151 133.258 143.272C129.543 141.896 125.829 140.438 122.117 138.9C87.3341 124.493 57.1401 104.864 37.0981 83.628C29.2172 75.2776 23.2467 67.0383 19.2902 59.0586C18.3362 57.1384 17.501 55.2355 16.7843 53.35C12.9217 43.1906 12.6498 33.9653 15.9786 25.9287Z" fill="url(#paint11_radial_4_179)"/>
<path d="M15.9786 25.9287C19.305 17.8946 26.0219 11.5632 35.9366 7.11248C45.4362 2.84707 57.4738 0.474649 71.7108 0.0644182C100.896 -0.778285 136.129 6.6899 170.913 21.0999C173.413 22.1353 175.892 23.198 178.344 24.2878L174.876 24.2977C173.389 23.6527 171.889 23.0176 170.376 22.3924C99.1122 -7.12451 30.4282 -5.29824 17.2711 26.465C13.4604 35.6631 14.7183 46.376 20.16 57.6747C33.5024 85.3974 72.0221 116.637 122.654 137.608C127.552 139.637 132.455 141.525 137.35 143.272C167.052 153.879 196.389 159.254 221.279 158.535C235.334 158.129 247.188 155.799 256.52 151.61C266.101 147.31 272.573 141.228 275.759 133.535C278.633 126.593 278.623 118.789 276.105 110.52L277.18 109.307C280.13 118.421 280.091 126.742 277.054 134.072C273.725 142.106 267.01 148.437 257.093 152.888C247.594 157.153 235.559 159.526 221.322 159.936C219.834 159.978 218.331 160 216.814 160C191.723 160 162.579 154.151 133.258 143.272C129.543 141.896 125.829 140.438 122.117 138.9C87.3341 124.493 57.1401 104.864 37.0981 83.628C29.2172 75.2776 23.2467 67.0383 19.2902 59.0586C18.3362 57.1384 17.501 55.2355 16.7843 53.35C12.9217 43.1906 12.6498 33.9653 15.9786 25.9287Z" fill="url(#paint12_radial_4_179)"/>
<path d="M15.9786 25.9287C19.305 17.8946 26.0219 11.5632 35.9366 7.11248C45.4362 2.84707 57.4738 0.474649 71.7108 0.0644182C100.896 -0.778285 136.129 6.6899 170.913 21.0999C173.413 22.1353 175.892 23.198 178.344 24.2878L174.876 24.2977C173.389 23.6527 171.889 23.0176 170.376 22.3924C99.1122 -7.12451 30.4282 -5.29824 17.2711 26.465C13.4604 35.6631 14.7183 46.376 20.16 57.6747C33.5024 85.3974 72.0221 116.637 122.654 137.608C127.552 139.637 132.455 141.525 137.35 143.272C167.052 153.879 196.389 159.254 221.279 158.535C235.334 158.129 247.188 155.799 256.52 151.61C266.101 147.31 272.573 141.228 275.759 133.535C278.633 126.593 278.623 118.789 276.105 110.52L277.18 109.307C280.13 118.421 280.091 126.742 277.054 134.072C273.725 142.106 267.01 148.437 257.093 152.888C247.594 157.153 235.559 159.526 221.322 159.936C219.834 159.978 218.331 160 216.814 160C191.723 160 162.579 154.151 133.258 143.272C129.543 141.896 125.829 140.438 122.117 138.9C87.3341 124.493 57.1401 104.864 37.0981 83.628C29.2172 75.2776 23.2467 67.0383 19.2902 59.0586C18.3362 57.1384 17.501 55.2355 16.7843 53.35C12.9217 43.1906 12.6498 33.9653 15.9786 25.9287Z" fill="url(#paint13_radial_4_179)"/>
<path d="M277.053 25.9287C273.727 17.8946 267.01 11.5632 257.095 7.11248C247.596 2.84707 235.558 0.474649 221.321 0.0644182C192.136 -0.778285 156.903 6.6899 122.12 21.0999C119.619 22.1353 117.14 23.198 114.688 24.2878L118.156 24.2977C119.643 23.6527 121.143 23.0176 122.656 22.3924C193.92 -7.12451 262.604 -5.29824 275.761 26.465C279.572 35.6631 278.314 46.376 272.872 57.6747C259.53 85.3974 221.01 116.637 170.379 137.608C165.48 139.637 160.577 141.525 155.682 143.272C125.98 153.879 96.6432 159.254 71.7526 158.535C57.6985 158.129 45.8438 155.799 36.5123 151.61C26.9311 147.31 20.4589 141.228 17.2734 133.535C14.3993 126.593 14.4092 118.789 16.9274 110.52L15.8524 109.307C12.9017 118.421 12.9413 126.742 15.9785 134.072C19.3073 142.106 26.0217 148.437 35.9389 152.888C45.4385 157.153 57.4736 159.526 71.7106 159.936C73.1983 159.978 74.7008 160 76.2182 160C101.309 160 130.453 154.151 159.774 143.272C163.489 141.896 167.203 140.438 170.915 138.9C205.698 124.493 235.892 104.864 255.934 83.628C263.815 75.2776 269.785 67.0383 273.742 59.0586C274.696 57.1384 275.531 55.2355 276.248 53.35C280.11 43.1906 280.382 33.9653 277.053 25.9287Z" fill="url(#paint14_linear_4_179)"/>
<path d="M277.053 25.9287C273.727 17.8946 267.01 11.5632 257.095 7.11248C247.596 2.84707 235.558 0.474649 221.321 0.0644182C192.136 -0.778285 156.903 6.6899 122.12 21.0999C119.619 22.1353 117.14 23.198 114.688 24.2878L118.156 24.2977C119.643 23.6527 121.143 23.0176 122.656 22.3924C193.92 -7.12451 262.604 -5.29824 275.761 26.465C279.572 35.6631 278.314 46.376 272.872 57.6747C259.53 85.3974 221.01 116.637 170.379 137.608C165.48 139.637 160.577 141.525 155.682 143.272C125.98 153.879 96.6432 159.254 71.7526 158.535C57.6985 158.129 45.8438 155.799 36.5123 151.61C26.9311 147.31 20.4589 141.228 17.2734 133.535C14.3993 126.593 14.4092 118.789 16.9274 110.52L15.8524 109.307C12.9017 118.421 12.9413 126.742 15.9785 134.072C19.3073 142.106 26.0217 148.437 35.9389 152.888C45.4385 157.153 57.4736 159.526 71.7106 159.936C73.1983 159.978 74.7008 160 76.2182 160C101.309 160 130.453 154.151 159.774 143.272C163.489 141.896 167.203 140.438 170.915 138.9C205.698 124.493 235.892 104.864 255.934 83.628C263.815 75.2776 269.785 67.0383 273.742 59.0586C274.696 57.1384 275.531 55.2355 276.248 53.35C280.11 43.1906 280.382 33.9653 277.053 25.9287Z" fill="url(#paint15_radial_4_179)"/>
<path d="M277.053 25.9287C273.727 17.8946 267.01 11.5632 257.095 7.11248C247.596 2.84707 235.558 0.474649 221.321 0.0644182C192.136 -0.778285 156.903 6.6899 122.12 21.0999C119.619 22.1353 117.14 23.198 114.688 24.2878L118.156 24.2977C119.643 23.6527 121.143 23.0176 122.656 22.3924C193.92 -7.12451 262.604 -5.29824 275.761 26.465C279.572 35.6631 278.314 46.376 272.872 57.6747C259.53 85.3974 221.01 116.637 170.379 137.608C165.48 139.637 160.577 141.525 155.682 143.272C125.98 153.879 96.6432 159.254 71.7526 158.535C57.6985 158.129 45.8438 155.799 36.5123 151.61C26.9311 147.31 20.4589 141.228 17.2734 133.535C14.3993 126.593 14.4092 118.789 16.9274 110.52L15.8524 109.307C12.9017 118.421 12.9413 126.742 15.9785 134.072C19.3073 142.106 26.0217 148.437 35.9389 152.888C45.4385 157.153 57.4736 159.526 71.7106 159.936C73.1983 159.978 74.7008 160 76.2182 160C101.309 160 130.453 154.151 159.774 143.272C163.489 141.896 167.203 140.438 170.915 138.9C205.698 124.493 235.892 104.864 255.934 83.628C263.815 75.2776 269.785 67.0383 273.742 59.0586C274.696 57.1384 275.531 55.2355 276.248 53.35C280.11 43.1906 280.382 33.9653 277.053 25.9287Z" fill="url(#paint16_radial_4_179)"/>
</g>
</g>
<defs>
<filter id="filter0_d_4_179" x="0" y="0" width="293.034" height="168" filterUnits="userSpaceOnUse" color-interpolation-filters="sRGB">
<feFlood flood-opacity="0" result="BackgroundImageFix"/>
<feColorMatrix in="SourceAlpha" type="matrix" values="0 0 0 0 0 0 0 0 0 0 0 0 0 0 0 0 0 0 127 0" result="hardAlpha"/>
<feOffset dy="4"/>
<feGaussianBlur stdDeviation="2"/>
<feComposite in2="hardAlpha" operator="out"/>
<feColorMatrix type="matrix" values="0 0 0 0 0 0 0 0 0 0 0 0 0 0 0 0 0 0 0.25 0"/>
<feBlend mode="normal" in2="BackgroundImageFix" result="effect1_dropShadow_4_179"/>
<feBlend mode="normal" in="SourceGraphic" in2="effect1_dropShadow_4_179" result="shape"/>
</filter>
<linearGradient id="paint0_linear_4_179" x1="146.469" y1="74.7559" x2="146.469" y2="135.549" gradientUnits="userSpaceOnUse">
<stop stop-color="#D9D9D9"/>
<stop offset="1" stop-color="#D9D9D9" stop-opacity="0"/>
</linearGradient>
<linearGradient id="paint1_linear_4_179" x1="4" y1="80.0001" x2="289.034" y2="80.0001" gradientUnits="userSpaceOnUse">
<stop stop-color="#996DFF"/>
<stop offset="0.5" stop-color="#35E8B3"/>
<stop offset="1" stop-color="#E2D45C"/>
</linearGradient>
<linearGradient id="paint2_linear_4_179" x1="146.516" y1="91.9115" x2="146.516" y2="136.167" gradientUnits="userSpaceOnUse">
<stop stop-color="#28203E"/>
<stop offset="1" stop-color="#121214" stop-opacity="0"/>
</linearGradient>
<linearGradient id="paint3_linear_4_179" x1="32.7906" y1="61.0154" x2="32.7906" y2="78.4551" gradientUnits="userSpaceOnUse">
<stop stop-color="#A9A9AD"/>
<stop offset="1" stop-color="#A9A9AD" stop-opacity="0"/>
</linearGradient>
<linearGradient id="paint4_linear_4_179" x1="65.9996" y1="61.0151" x2="65.9996" y2="78.4548" gradientUnits="userSpaceOnUse">
<stop stop-color="#A9A9AD"/>
<stop offset="1" stop-color="#A9A9AD" stop-opacity="0"/>
</linearGradient>
<linearGradient id="paint5_linear_4_179" x1="104.196" y1="61.0151" x2="104.196" y2="78.4548" gradientUnits="userSpaceOnUse">
<stop stop-color="#A9A9AD"/>
<stop offset="1" stop-color="#A9A9AD" stop-opacity="0"/>
</linearGradient>
<linearGradient id="paint6_linear_4_179" x1="144.153" y1="61.0153" x2="144.153" y2="78.4551" gradientUnits="userSpaceOnUse">
<stop stop-color="#A9A9AD"/>
<stop offset="1" stop-color="#A9A9AD" stop-opacity="0"/>
</linearGradient>
<linearGradient id="paint7_linear_4_179" x1="183.363" y1="61.0151" x2="183.363" y2="78.4549" gradientUnits="userSpaceOnUse">
<stop stop-color="#A9A9AD"/>
<stop offset="1" stop-color="#A9A9AD" stop-opacity="0"/>
</linearGradient>
<linearGradient id="paint8_linear_4_179" x1="216.594" y1="61.015" x2="216.594" y2="78.4548" gradientUnits="userSpaceOnUse">
<stop stop-color="#A9A9AD"/>
<stop offset="1" stop-color="#A9A9AD" stop-opacity="0"/>
</linearGradient>
<linearGradient id="paint9_linear_4_179" x1="251.009" y1="61.0154" x2="251.009" y2="78.4552" gradientUnits="userSpaceOnUse">
<stop stop-color="#A9A9AD"/>
<stop offset="1" stop-color="#A9A9AD" stop-opacity="0"/>
</linearGradient>
<linearGradient id="paint10_linear_4_179" x1="262.619" y1="114.544" x2="70.1068" y2="115.532" gradientUnits="userSpaceOnUse">
<stop stop-color="#996DFF"/>
<stop offset="0.5" stop-color="#35E8B3"/>
<stop offset="1" stop-color="#E2D45C"/>
</linearGradient>
<radialGradient id="paint11_radial_4_179" cx="0" cy="0" r="1" gradientUnits="userSpaceOnUse" gradientTransform="translate(144.758 146.212) rotate(15.7611) scale(129.411 214.897)">
<stop stop-color="#171226"/>
<stop offset="1" stop-color="#171226" stop-opacity="0"/>
</radialGradient>
<radialGradient id="paint12_radial_4_179" cx="0" cy="0" r="1" gradientUnits="userSpaceOnUse" gradientTransform="translate(177.94 25.0002) rotate(-157.036) scale(29.1264 48.3668)">
<stop stop-color="#261945"/>
<stop offset="1" stop-color="#261945" stop-opacity="0"/>
</radialGradient>
<radialGradient id="paint13_radial_4_179" cx="0" cy="0" r="1" gradientUnits="userSpaceOnUse" gradientTransform="translate(277.485 107.273) rotate(76.7293) scale(33.0025 54.8033)">
<stop stop-color="#191326"/>
<stop offset="1" stop-color="#191326" stop-opacity="0"/>
</radialGradient>
<linearGradient id="paint14_linear_4_179" x1="153.849" y1="17.7274" x2="196.879" y2="126.818" gradientUnits="userSpaceOnUse">
<stop stop-color="#996DFF"/>
<stop offset="0.5" stop-color="#35E8B3"/>
<stop offset="1" stop-color="#E2D45C"/>
</linearGradient>
<radialGradient id="paint15_radial_4_179" cx="0" cy="0" r="1" gradientUnits="userSpaceOnUse" gradientTransform="translate(112.03 27.4244) rotate(-19.3523) scale(65.8413 109.335)">
<stop stop-color="#171225"/>
<stop offset="1" stop-color="#171225" stop-opacity="0"/>
</radialGradient>
<radialGradient id="paint16_radial_4_179" cx="0" cy="0" r="1" gradientUnits="userSpaceOnUse" gradientTransform="translate(15.9698 108.788) rotate(67.4706) scale(44.2891 73.5456)">
<stop stop-color="#191327"/>
<stop offset="1" stop-color="#191327" stop-opacity="0"/>
</radialGradient>
<clipPath id="clip0_4_179">
<rect width="285.034" height="160" fill="white" transform="translate(4)"/>
</clipPath>
</defs>
</svg>
